<svg style="position: absolute; width: 0; height: 0; overflow: hidden;" version="1.1" xmlns="http://www.w3.org/2000/svg" xmlns:xlink="http://www.w3.org/1999/xlink">
<defs>


<symbol id="icon-location" viewBox="0 0 11 16">
<path d="M11,5.4C11,2.42,8.54,0,5.5,0h0C2.46,0,0,2.42,0,5.4c0,0.92,0.23,1.78,0.64,2.54h0l0,0.01C0.72,8.08,0.8,8.2,0.88,8.33	L5.5,16h0l4.62-7.67c0.08-0.12,0.16-0.25,0.23-0.38l0-0.01h0C10.77,7.18,11,6.32,11,5.4z M5.5,7.25c-1.11,0-2-0.88-2-1.97 c0-1.09,0.9-1.97,2-1.97c1.11,0,2,0.88,2,1.97C7.5,6.37,6.61,7.25,5.5,7.25z"/>
</symbol>

<symbol id="icon-phone" viewBox="0 0 17 17">
<path d="M0.11,13.11c-0.29-0.87,0-1.46,0.88-1.85c0.59-0.29,1.47-0.68,2.16-0.97c0.49-0.19,0.98-0.49,1.37-0.58
	c0.2-0.1,0.39-0.19,0.69-0.19C5.71,9.52,6.1,9.91,6.2,10l0.88,0.87C7.57,10.59,8.46,10,9.24,9.23c0.79-0.78,1.37-1.65,1.67-2.14
	l-0.88-0.87C9.34,5.63,9.44,5.05,9.73,4.47c0.2-0.39,0.39-0.78,0.59-1.36c0.29-0.68,0.69-1.55,0.98-2.14C11.4,0.68,11.7,0,12.48,0
	c0.2,0,0.39,0.1,0.59,0.1C15.04,0.68,17,2.14,17,4.18c0,1.94-1.57,5.54-4.52,8.35C9.54,15.44,6,17,4.04,17
	C2.17,17.09,0.6,15.05,0.11,13.11z"/>
</symbol>

<symbol id="icon-phone-outline" viewBox="0 0 17 17">
<path d="M0.11,13.11c-0.29-0.87,0-1.46,0.88-1.85c0.59-0.29,1.47-0.68,2.16-0.97c0.49-0.19,0.98-0.49,1.37-0.58
	c0.2-0.1,0.39-0.19,0.69-0.19C5.71,9.52,6.1,9.91,6.2,10l0.88,0.87C7.57,10.59,8.46,10,9.24,9.23c0.79-0.78,1.37-1.65,1.67-2.14
	l-0.88-0.87C9.34,5.63,9.44,5.05,9.73,4.47c0.2-0.39,0.39-0.78,0.59-1.36c0.29-0.68,0.69-1.55,0.98-2.14C11.4,0.68,11.7,0,12.48,0
	c0.2,0,0.39,0.1,0.59,0.1C15.04,0.68,17,2.14,17,4.18c0,1.94-1.57,5.54-4.52,8.35C9.54,15.44,6,17,4.04,17
	C2.17,17.09,0.6,15.05,0.11,13.11z M1.58,12.72c0.39,1.36,1.47,2.82,2.55,2.82c1.37,0,4.62-1.26,7.46-3.98
	c2.75-2.72,4.03-5.92,4.03-7.38c0-1.07-1.47-2.14-2.85-2.53c-0.29,0.58-0.69,1.46-0.98,2.14c-0.2,0.49-0.49,0.97-0.59,1.26v0.1
	l1.67,1.65l-0.2,0.49c0,0.1-0.79,1.55-2.26,3.01s-2.95,2.14-3.04,2.23l-0.49,0.19l-1.67-1.65h-0.1c-0.29,0.19-0.79,0.39-1.28,0.58
	C2.96,12.04,2.17,12.43,1.58,12.72z"/>
</symbol>

<symbol id="icon-menu" viewBox="0 0 30 30">
<rect y="5" width="30" height="2"/>
<rect y="14" width="30" height="2"/>
<rect y="23" width="30" height="2"/>
</symbol>

<symbol id="icon-arrow-right" viewBox="0 0 10 16">
<path class="st0" d="M2.03,15.84L9.5,8.37C9.61,8.26,9.67,8.14,9.67,8S9.61,7.74,9.5,7.63L2.03,0.16C1.93,0.05,1.8,0,1.67,0
	C1.53,0,1.4,0.05,1.3,0.16l-0.8,0.8C0.39,1.07,0.33,1.19,0.33,1.33S0.39,1.59,0.49,1.7L6.8,8l-6.3,6.3
	c-0.11,0.11-0.16,0.23-0.16,0.37c0,0.14,0.05,0.26,0.16,0.37l0.8,0.8C1.4,15.95,1.53,16,1.67,16C1.8,16,1.93,15.95,2.03,15.84
	L2.03,15.84z"/>
</symbol>

<symbol id="icon-arrow-left" viewBox="0 0 10 16">
<path class="st0" d="M7.97,15.84C8.07,15.95,8.2,16,8.33,16c0.14,0,0.26-0.05,0.37-0.16l0.8-0.8c0.11-0.11,0.16-0.23,0.16-0.37
	c0-0.14-0.05-0.26-0.16-0.37L3.2,8l6.3-6.3c0.11-0.11,0.16-0.23,0.16-0.37S9.61,1.07,9.51,0.96l-0.8-0.8C8.6,0.05,8.47,0,8.33,0
	C8.2,0,8.07,0.05,7.97,0.16L0.5,7.63C0.39,7.74,0.33,7.86,0.33,8S0.39,8.26,0.5,8.37L7.97,15.84L7.97,15.84z"/>
</symbol>


</defs>
</svg>
