<svg style="position: absolute; width: 0; height: 0; overflow: hidden;" version="1.1" xmlns="http://www.w3.org/2000/svg" xmlns:xlink="http://www.w3.org/1999/xlink">
<defs>


<symbol id="icon-location" viewBox="0 0 11 16">
<path d="M11,5.4C11,2.42,8.54,0,5.5,0h0C2.46,0,0,2.42,0,5.4c0,0.92,0.23,1.78,0.64,2.54h0l0,0.01C0.72,8.08,0.8,8.2,0.88,8.33	L5.5,16h0l4.62-7.67c0.08-0.12,0.16-0.25,0.23-0.38l0-0.01h0C10.77,7.18,11,6.32,11,5.4z M5.5,7.25c-1.11,0-2-0.88-2-1.97 c0-1.09,0.9-1.97,2-1.97c1.11,0,2,0.88,2,1.97C7.5,6.37,6.61,7.25,5.5,7.25z"/>
</symbol>

<symbol id="icon-phone" viewBox="0 0 17 17">
<path d="M0.11,13.11c-0.29-0.87,0-1.46,0.88-1.85c0.59-0.29,1.47-0.68,2.16-0.97c0.49-0.19,0.98-0.49,1.37-0.58
	c0.2-0.1,0.39-0.19,0.69-0.19C5.71,9.52,6.1,9.91,6.2,10l0.88,0.87C7.57,10.59,8.46,10,9.24,9.23c0.79-0.78,1.37-1.65,1.67-2.14
	l-0.88-0.87C9.34,5.63,9.44,5.05,9.73,4.47c0.2-0.39,0.39-0.78,0.59-1.36c0.29-0.68,0.69-1.55,0.98-2.14C11.4,0.68,11.7,0,12.48,0
	c0.2,0,0.39,0.1,0.59,0.1C15.04,0.68,17,2.14,17,4.18c0,1.94-1.57,5.54-4.52,8.35C9.54,15.44,6,17,4.04,17
	C2.17,17.09,0.6,15.05,0.11,13.11z"/>
</symbol>

<symbol id="icon-phone-outline" viewBox="0 0 17 17">
<path d="M0.11,13.11c-0.29-0.87,0-1.46,0.88-1.85c0.59-0.29,1.47-0.68,2.16-0.97c0.49-0.19,0.98-0.49,1.37-0.58
	c0.2-0.1,0.39-0.19,0.69-0.19C5.71,9.52,6.1,9.91,6.2,10l0.88,0.87C7.57,10.59,8.46,10,9.24,9.23c0.79-0.78,1.37-1.65,1.67-2.14
	l-0.88-0.87C9.34,5.63,9.44,5.05,9.73,4.47c0.2-0.39,0.39-0.78,0.59-1.36c0.29-0.68,0.69-1.55,0.98-2.14C11.4,0.68,11.7,0,12.48,0
	c0.2,0,0.39,0.1,0.59,0.1C15.04,0.68,17,2.14,17,4.18c0,1.94-1.57,5.54-4.52,8.35C9.54,15.44,6,17,4.04,17
	C2.17,17.09,0.6,15.05,0.11,13.11z M1.58,12.72c0.39,1.36,1.47,2.82,2.55,2.82c1.37,0,4.62-1.26,7.46-3.98
	c2.75-2.72,4.03-5.92,4.03-7.38c0-1.07-1.47-2.14-2.85-2.53c-0.29,0.58-0.69,1.46-0.98,2.14c-0.2,0.49-0.49,0.97-0.59,1.26v0.1
	l1.67,1.65l-0.2,0.49c0,0.1-0.79,1.55-2.26,3.01s-2.95,2.14-3.04,2.23l-0.49,0.19l-1.67-1.65h-0.1c-0.29,0.19-0.79,0.39-1.28,0.58
	C2.96,12.04,2.17,12.43,1.58,12.72z"/>
</symbol>

<symbol id="icon-menu" viewBox="0 0 30 30">
<rect y="5" width="30" height="2"/>
<rect y="14" width="30" height="2"/>
<rect y="23" width="30" height="2"/>
</symbol>

<symbol id="icon-arrow-right" viewBox="0 0 10 16">
<path class="st0" d="M2.03,15.84L9.5,8.37C9.61,8.26,9.67,8.14,9.67,8S9.61,7.74,9.5,7.63L2.03,0.16C1.93,0.05,1.8,0,1.67,0
	C1.53,0,1.4,0.05,1.3,0.16l-0.8,0.8C0.39,1.07,0.33,1.19,0.33,1.33S0.39,1.59,0.49,1.7L6.8,8l-6.3,6.3
	c-0.11,0.11-0.16,0.23-0.16,0.37c0,0.14,0.05,0.26,0.16,0.37l0.8,0.8C1.4,15.95,1.53,16,1.67,16C1.8,16,1.93,15.95,2.03,15.84
	L2.03,15.84z"/>
</symbol>

<symbol id="icon-arrow-left" viewBox="0 0 10 16">
<path class="st0" d="M7.97,15.84C8.07,15.95,8.2,16,8.33,16c0.14,0,0.26-0.05,0.37-0.16l0.8-0.8c0.11-0.11,0.16-0.23,0.16-0.37
	c0-0.14-0.05-0.26-0.16-0.37L3.2,8l6.3-6.3c0.11-0.11,0.16-0.23,0.16-0.37S9.61,1.07,9.51,0.96l-0.8-0.8C8.6,0.05,8.47,0,8.33,0
	C8.2,0,8.07,0.05,7.97,0.16L0.5,7.63C0.39,7.74,0.33,7.86,0.33,8S0.39,8.26,0.5,8.37L7.97,15.84L7.97,15.84z"/>
</symbol>

<symbol id="icon-arrow-up" viewBox="0 0 16 10">
<path d="M15.8,7.6L8.4,0.2C8.3,0.1,8.1,0,8,0C7.9,0,7.7,0.1,7.6,0.2L0.2,7.6C0.1,7.7,0,7.9,0,8c0,0.1,0.1,0.3,0.2,0.4L1,9.2
	c0.1,0.1,0.2,0.2,0.4,0.2s0.3-0.1,0.4-0.2L8,2.9l6.3,6.3c0.1,0.1,0.2,0.2,0.4,0.2s0.3-0.1,0.4-0.2l0.8-0.8C15.9,8.3,16,8.1,16,8
	C16,7.9,15.9,7.7,15.8,7.6L15.8,7.6z"/>
</symbol>

<symbol id="icon-arrow-down" viewBox="0 0 16 10">
<path d="M0.2,1.7l7.5,7.5C7.7,9.3,7.9,9.3,8,9.3c0.1,0,0.3-0.1,0.4-0.2l7.5-7.5C15.9,1.6,16,1.5,16,1.3c0-0.1-0.1-0.3-0.2-0.4
	L15,0.2C14.9,0.1,14.8,0,14.7,0c-0.1,0-0.3,0.1-0.4,0.2L8,6.5L1.7,0.2C1.6,0.1,1.5,0,1.3,0C1.2,0,1.1,0.1,1,0.2L0.2,1
	C0,1.1,0,1.2,0,1.3C0,1.5,0,1.6,0.2,1.7L0.2,1.7z"/>
</symbol>

<symbol id="icon-facebook" viewBox="0 0 18 18">
	<path d="M15.8,0H2.2C1,0,0,1,0,2.2v13.5C0,17,1,18,2.2,18h6.8v-6.4H6.9V8.7h2.2V7.3C9,5.3,10.6,3.5,12.7,3.5c0,0,0,0,0.1,0h2v3.2h-1.8c-0.3,0-0.6,0.2-0.6,0.5c0,0.1,0,0.1,0,0.2v1.5h2.4v2.8h-2.4V18h3.4c1.2,0,2.2-1,2.2-2.2V2.2C18,1,17,0,15.8,0z"></path>
</symbol>

<symbol id="icon-youtube" viewBox="0 0 18 18">
<path d="M18,9c0,1.6,0,2.6-0.1,3.2c0,0.7-0.2,1.3-0.5,1.9c-0.3,0.5-0.8,0.9-1.4,1c-0.9,0.2-1.8,0.4-2.7,0.4c-0.8,0-2.2,0-4.4,0s-3.6,0-4.4-0.1c-0.9,0-1.8-0.1-2.7-0.4c-0.6-0.1-1.1-0.5-1.4-1c-0.1-0.5-0.3-1.2-0.3-1.8C0,11.6,0,10.6,0,9s0-2.6,0.1-3.2c0-0.7,0.2-1.3,0.5-1.9C0.9,3.4,1.4,3,2,2.9c0.8-0.2,1.7-0.4,2.6-0.4c0.8,0,2.2,0,4.4,0s3.6,0,4.4,0c0.9,0,1.8,0.1,2.7,0.4c0.6,0.1,1.1,0.5,1.4,1C17.8,4.5,18,5.2,18,5.8S18,7.4,18,9z M12.6,9L6.9,5.5v6.9L12.6,9z"></path>
</symbol>

<symbol id="icon-instagram" viewBox="0 0 800 800">
<path d="M400.003 72.068c106.804 0 119.451.408 161.633 2.332 38.997 1.781 60.178 8.298 74.274 13.774 18.673 7.257 31.996 15.926 45.993 29.923 13.999 13.997 22.669 27.317 29.923 45.99 5.477 14.097 11.993 35.277 13.771 74.275 1.924 42.181 2.332 54.829 2.332 161.636s-.408 119.457-2.332 161.636c-1.778 39-8.295 60.181-13.771 74.274-7.254 18.669-15.924 31.993-29.923 45.993-13.997 13.996-27.32 22.666-45.993 29.923-14.097 5.476-35.277 11.993-74.274 13.771-42.175 1.927-54.82 2.331-161.633 2.331-106.815 0-119.46-.404-161.636-2.331-38.997-1.778-60.178-8.296-74.275-13.771-18.669-7.257-31.996-15.927-45.993-29.923-13.996-14-22.663-27.324-29.92-45.993-5.476-14.094-11.996-35.274-13.774-74.274-1.924-42.179-2.332-54.829-2.332-161.636s.408-119.455 2.332-161.636c1.778-38.998 8.298-60.178 13.774-74.275 7.257-18.672 15.924-31.993 29.92-45.99 13.997-13.997 27.324-22.666 45.993-29.923 14.097-5.476 35.278-11.994 74.275-13.774 42.182-1.924 54.829-2.332 161.636-2.332m0-72.071c-108.636 0-122.258.459-164.92 2.408-42.577 1.942-71.654 8.706-97.096 18.593C111.683 31.22 89.376 44.896 67.14 67.133 44.903 89.37 31.223 111.68 21.004 137.98c-9.893 25.449-16.654 54.522-18.596 97.1C.46 277.746.003 291.365.003 399.997c0 108.636.457 122.255 2.405 164.917 1.942 42.58 8.703 71.654 18.596 97.1 10.219 26.303 23.899 48.61 46.136 70.85 22.236 22.237 44.543 35.914 70.847 46.136 25.442 9.887 54.519 16.647 97.096 18.593 42.663 1.945 56.285 2.408 164.92 2.408 108.633 0 122.255-.463 164.917-2.408 42.578-1.945 71.654-8.706 97.097-18.593 26.304-10.222 48.61-23.898 70.851-46.136 22.236-22.239 35.913-44.547 46.135-70.85 9.891-25.445 16.651-54.52 18.594-97.1 1.947-42.662 2.404-56.281 2.404-164.917 0-108.633-.457-122.252-2.404-164.917-1.942-42.577-8.703-71.651-18.594-97.099-10.222-26.3-23.898-48.61-46.135-70.847-22.24-22.237-44.547-35.914-70.851-46.135-25.442-9.887-54.519-16.651-97.097-18.593C522.258.457 508.636-.003 400.003-.003"></path><path d="M400.003 194.594c-113.442 0-205.406 91.961-205.406 205.403S286.561 605.4 400.003 605.4c113.439 0 205.403-91.961 205.403-205.403s-91.964-205.403-205.403-205.403m0 338.735c-73.639 0-133.335-59.693-133.335-133.332s59.696-133.333 133.335-133.333 133.332 59.694 133.332 133.333-59.693 133.332-133.332 133.332M661.523 186.479c0 26.507-21.488 47.998-48.002 47.998-26.508 0-47.998-21.491-47.998-47.998 0-26.514 21.49-48.002 47.998-48.002 26.514 0 48.002 21.488 48.002 48.002"></path>
</symbol>


<symbol id="icon-kms" viewBox="0 0 16 16">
<g>
	<path d="M7.99,1.04c4.04,0.03,7.48,3.03,7.94,7.02c0.29,2.49-0.42,4.67-2.13,6.52c-0.41,0.44-0.87,0.51-1.22,0.17
		c-0.34-0.33-0.31-0.78,0.08-1.21c2.17-2.37,2.41-5.76,0.55-8.27c-1.27-1.71-2.98-2.63-5.13-2.63c-2.8,0-4.86,1.31-5.98,3.85
		C0.99,9,1.45,11.36,3.26,13.45c0.04,0.05,0.09,0.1,0.14,0.15c0.33,0.37,0.34,0.83,0.02,1.14c-0.33,0.32-0.79,0.29-1.15-0.09
		c-0.99-1.02-1.68-2.22-2.02-3.6C-0.88,6.49,1.98,2.04,6.6,1.19C7.06,1.1,7.53,1.09,7.99,1.04z"/>
	<path d="M8.01,9.91c-0.48,0-0.64-0.18-0.77-0.49C7.1,9.08,7.18,8.78,7.44,8.54c0.35-0.31,0.71-0.6,1.07-0.9
		c0.9-0.75,1.81-1.5,2.71-2.25c0.17-0.14,0.34-0.26,0.53-0.06c0.17,0.19,0.06,0.35-0.07,0.51c-1.03,1.24-2.05,2.48-3.09,3.7
		C8.44,9.72,8.27,9.85,8.01,9.91z"/>
</g>
<g class="st0">
	<g class="st1">
		<path d="M42.52,5.06l0.02,0c0.02,0.01,0.05,0.01,0.07,0.01c0.13,0,0.24-0.09,0.27-0.23c0.04-0.16-0.05-0.32-0.21-0.36l-0.46-0.12
			c0,0-0.01,0-0.01,0l-1.69-0.45V1.8c0-0.46-0.35-0.84-0.79-0.84h-6.67c-0.43,0-0.79,0.37-0.79,0.84v10.93h-0.66
			c-0.39,0-0.7,0.33-0.7,0.75v0.74c0,0.41,0.31,0.75,0.7,0.75h9.57c0.39,0,0.7-0.33,0.7-0.75v-0.74c0-0.41-0.31-0.75-0.7-0.75h-0.66
			v-2.68c0.22,0.14,0.48,0.22,0.74,0.22c0.08,0,0.16-0.01,0.25-0.02c0.63-0.13,1.16-0.7,1.32-1.43C43.04,7.85,42.77,6.2,42.52,5.06z
			 M39.46,5.92c0,0.16-0.12,0.28-0.27,0.28h-5.6c-0.15,0-0.27-0.13-0.27-0.28v-3.5c0-0.16,0.12-0.28,0.27-0.28h5.6
			c0.15,0,0.27,0.13,0.27,0.28V5.92z M42.28,8.69c-0.11,0.49-0.47,0.9-0.88,0.98c-0.33,0.07-0.69-0.12-0.89-0.41V4.53l1.01,0.27
			c-0.02,0.11-0.04,0.22-0.04,0.34c0,0.2,0.07,0.41,0.2,0.54c0.09,0.09,0.24,0.13,0.4,0.11C42.28,6.76,42.44,7.97,42.28,8.69z"/>
	</g>
</g></symbol>

<symbol id="icon-petrol" viewBox="0 0 16 16">
<g>
	<g>
		<path d="M13.62,5.09l0.02,0c0.02,0.01,0.05,0.01,0.07,0.01c0.13,0,0.24-0.09,0.27-0.23c0.04-0.16-0.05-0.32-0.21-0.36l-0.46-0.12
			c0,0-0.01,0-0.01,0l-1.69-0.45V1.84c0-0.46-0.35-0.84-0.79-0.84H4.15C3.72,1,3.37,1.37,3.37,1.84v10.93H2.7
			c-0.39,0-0.7,0.33-0.7,0.75v0.74C2,14.67,2.31,15,2.7,15h9.57c0.39,0,0.7-0.33,0.7-0.75v-0.74c0-0.41-0.31-0.75-0.7-0.75h-0.66
			v-2.68c0.22,0.14,0.48,0.22,0.74,0.22c0.08,0,0.16-0.01,0.25-0.02c0.63-0.13,1.16-0.7,1.32-1.43C14.14,7.89,13.86,6.23,13.62,5.09
			z M10.55,5.95c0,0.16-0.12,0.28-0.27,0.28h-5.6c-0.15,0-0.27-0.13-0.27-0.28v-3.5c0-0.16,0.12-0.28,0.27-0.28h5.6
			c0.15,0,0.27,0.13,0.27,0.28V5.95z M13.37,8.72c-0.11,0.49-0.47,0.9-0.88,0.98c-0.33,0.07-0.69-0.12-0.89-0.41V4.56l1.01,0.27
			c-0.02,0.11-0.04,0.22-0.04,0.34c0,0.2,0.07,0.41,0.2,0.54c0.09,0.09,0.24,0.13,0.4,0.11C13.37,6.79,13.53,8.01,13.37,8.72z"/>
	</g>
</g>
</symbol>

<symbol id="icon-petrol" viewBox="0 0 16 16">
<g>
	<g>
		<path d="M13.62,5.09l0.02,0c0.02,0.01,0.05,0.01,0.07,0.01c0.13,0,0.24-0.09,0.27-0.23c0.04-0.16-0.05-0.32-0.21-0.36l-0.46-0.12
			c0,0-0.01,0-0.01,0l-1.69-0.45V1.84c0-0.46-0.35-0.84-0.79-0.84H4.15C3.72,1,3.37,1.37,3.37,1.84v10.93H2.7
			c-0.39,0-0.7,0.33-0.7,0.75v0.74C2,14.67,2.31,15,2.7,15h9.57c0.39,0,0.7-0.33,0.7-0.75v-0.74c0-0.41-0.31-0.75-0.7-0.75h-0.66
			v-2.68c0.22,0.14,0.48,0.22,0.74,0.22c0.08,0,0.16-0.01,0.25-0.02c0.63-0.13,1.16-0.7,1.32-1.43C14.14,7.89,13.86,6.23,13.62,5.09
			z M10.55,5.95c0,0.16-0.12,0.28-0.27,0.28h-5.6c-0.15,0-0.27-0.13-0.27-0.28v-3.5c0-0.16,0.12-0.28,0.27-0.28h5.6
			c0.15,0,0.27,0.13,0.27,0.28V5.95z M13.37,8.72c-0.11,0.49-0.47,0.9-0.88,0.98c-0.33,0.07-0.69-0.12-0.89-0.41V4.56l1.01,0.27
			c-0.02,0.11-0.04,0.22-0.04,0.34c0,0.2,0.07,0.41,0.2,0.54c0.09,0.09,0.24,0.13,0.4,0.11C13.37,6.79,13.53,8.01,13.37,8.72z"/>
	</g>
</g>
</symbol>

<symbol id="icon-car" viewBox="0 0 16 16">
<g>
	<g>
		<path class="st0" d="M13.55,11.48h0.4c0.58,0,1.05-0.46,1.05-1.04V7.9c0-0.58-0.47-1.04-1.05-1.04h-0.21l-1.38-3.56
			c-0.05-0.12-0.14-0.18-0.28-0.18H4.22c-0.12,0-0.21,0.07-0.26,0.16L2.28,6.86H2.05C1.47,6.86,1,7.33,1,7.9v2.54
			c0,0.58,0.47,1.04,1.05,1.04h0.42H13.55z M11.9,3.7l1.21,3.17H2.91L4.38,3.7H11.9z M14.42,10.45c0,0.25-0.21,0.46-0.47,0.46
			c-1.56,0-10.64,0-11.9,0c-0.26,0-0.47-0.21-0.47-0.46V7.9c0-0.25,0.21-0.46,0.47-0.46c0.28,0,11.32,0,11.9,0
			c0.26,0,0.47,0.21,0.47,0.46V10.45z"/>
		<path class="st0" d="M3.33,8.02c-0.65,0-1.17,0.51-1.17,1.16c0,0.65,0.51,1.16,1.17,1.16S4.5,9.82,4.5,9.17
			C4.5,8.53,3.99,8.02,3.33,8.02z M3.33,9.75c-0.33,0-0.58-0.25-0.58-0.58c0-0.32,0.26-0.58,0.58-0.58c0.33,0,0.58,0.25,0.58,0.58
			C3.92,9.5,3.66,9.75,3.33,9.75z"/>
		<path class="st0" d="M12.67,8.02c-0.65,0-1.17,0.51-1.17,1.16c0,0.65,0.51,1.16,1.17,1.16c0.65,0,1.17-0.51,1.17-1.16
			C13.83,8.53,13.32,8.02,12.67,8.02z M12.67,9.75c-0.33,0-0.58-0.25-0.58-0.58c0-0.32,0.26-0.58,0.58-0.58
			c0.33,0,0.58,0.25,0.58,0.58C13.25,9.5,12.99,9.75,12.67,9.75z"/>
		<path class="st0" d="M10.64,8.9H5.39c-0.16,0-0.3,0.14-0.3,0.3c0,0.16,0.14,0.3,0.3,0.3h5.25c0.16,0,0.3-0.14,0.3-0.3
			C10.94,9.04,10.78,8.9,10.64,8.9z"/>
	</g>
	<path class="st0" d="M3.8,11.03c0,0.01,0,0.02,0,0.02v0.9c0,0.26-0.21,0.47-0.47,0.47h-0.6c-0.26,0-0.47-0.21-0.47-0.47v-0.9
		c0-0.01,0-0.02,0-0.02H1.88v1.03c0,0.45,0.37,0.81,0.81,0.81h0.68c0.45,0,0.81-0.37,0.81-0.81v-1.03H3.8z"/>
	<path class="st0" d="M13.97,11.03c0,0.01,0,0.02,0,0.02v0.9c0,0.26-0.21,0.47-0.47,0.47h-0.6c-0.26,0-0.47-0.21-0.47-0.47v-0.9
		c0-0.01,0-0.02,0-0.02h-0.39v1.03c0,0.45,0.37,0.81,0.81,0.81h0.68c0.45,0,0.81-0.37,0.81-0.81v-1.03H13.97z"/>
</g>
</symbol>

<symbol id="icon-transmission" viewBox="0 0 16 16">
<path class="st0" d="M2,2c0-0.55,0.45-1,1-1s1,0.45,1,1v5h3V2c0-0.55,0.45-1,1-1s1,0.45,1,1v5h4c0.55,0,1,0.45,1,1v6
	c0,0.55-0.45,1-1,1s-1-0.45-1-1V9H9v5c0,0.55-0.45,1-1,1s-1-0.45-1-1V9H4v5c0,0.55-0.45,1-1,1s-1-0.45-1-1V2z"/>
</symbol>


<symbol id="icon-contact" viewBox="0 0 32 32">
<g>
	<path d="M5.2,27.6c-0.3,0-0.5,0-0.8-0.1c-0.9-0.2-1.7-1.1-1.7-2c0-0.1,0-0.1,0-0.2c0-7.3,0-14.6,0-22c0-0.8,0.3-1.5,1-2
		C4.1,1.1,4.5,1,5,1c3,0,6,0,9,0c2.4,0,4.8,0,7.3,0c0.6,0,1.1,0.1,1.5,0.5c0.6,0.5,0.9,1.1,0.9,1.8c0,0.3,0,0.3,0.3,0.4
		c0.7,0.2,1.3,0.8,1.3,1.6c0,0.1,0,0.2,0,0.3c0,4.2,0,8.5,0,12.7c0,0.2,0,0.2,0.2,0.3c2.1,1,3.4,2.6,3.8,4.9
		c0.6,3.5-1.8,6.9-5.3,7.5c-2.1,0.4-3.9-0.2-5.5-1.6c-0.1-0.1-0.2-0.1-0.3-0.1c-3.7,0-7.3,0-11,0c-0.4,0-0.8-0.1-1.2-0.3
		C5.4,28.6,5.2,28.1,5.2,27.6z M24.3,18.1c0,0,0-0.1,0-0.2c0-4.2,0-8.3,0-12.5c0-0.6-0.4-1-1-1c-5.5,0-10.9,0-16.4,0
		c-0.6,0-1,0.4-1,1c0,7.3,0,14.7,0,22c0,0.5,0.4,1,1,1c3.4,0,6.9,0,10.3,0c0.1,0,0.1,0,0.2,0c0,0,0,0,0,0c0,0,0-0.1-0.1-0.1
		c-0.5-0.7-0.8-1.4-1-2.2c0-0.1-0.1-0.2-0.2-0.2c-2.4,0-4.9,0-7.3,0c-0.1,0-0.1,0-0.2,0c-0.3,0-0.5-0.4-0.3-0.6
		c0.1-0.2,0.3-0.2,0.5-0.2c2.4,0,4.8,0,7.2,0c0.1,0,0.1,0,0.2,0c0.1-0.7,0.1-1.3,0.2-1.9c0,0-0.1,0-0.2,0c-2.4,0-4.9,0-7.3,0
		c-0.1,0-0.1,0-0.2,0c-0.2,0-0.4-0.2-0.4-0.4c0-0.2,0.1-0.4,0.3-0.4c0.1,0,0.2,0,0.2,0c2.5,0,5.1,0,7.6,0c0.1,0,0.2,0,0.2-0.2
		c0.2-0.6,0.6-1.1,1-1.6c0,0,0.1-0.1,0.1-0.2c-0.1,0-0.2,0-0.2,0c-2.9,0-5.8,0-8.7,0c-0.1,0-0.1,0-0.2,0c-0.2,0-0.4-0.2-0.4-0.4
		c0-0.2,0.1-0.4,0.3-0.5c0.1,0,0.2,0,0.3,0c3.3,0,6.5,0,9.8,0c0.1,0,0.2,0,0.3-0.1c1.2-0.9,2.5-1.3,3.9-1.2
		C23.3,17.9,23.8,18,24.3,18.1z M22.8,18.8c-3.1,0-5.7,2.5-5.7,5.7c0,3.2,2.7,5.7,5.8,5.6c3-0.1,5.5-2.6,5.5-5.8
		C28.3,21.3,25.9,18.8,22.8,18.8z M5.2,26.6c0-0.1,0-0.1,0-0.2c0-7,0-13.9,0-20.9c0-0.1,0-0.1,0-0.2c0-0.6,0.2-1.1,0.7-1.4
		c0.4-0.3,0.8-0.4,1.2-0.4c5.1,0,10.3,0,15.4,0c0.1,0,0.1,0,0.2,0c0-0.1,0-0.2,0-0.3c0-0.8-0.6-1.3-1.3-1.3c-5.5,0-11,0-16.5,0
		c-0.1,0-0.3,0-0.4,0c-0.6,0.2-1,0.7-1,1.3c0,7.3,0,14.6,0,22c0,0,0,0.1,0,0.1C3.6,26.2,4.3,26.8,5.2,26.6z"/>
	<path d="M15.3,6.9c3,0,5.4,2.4,5.4,5.4c0,3-2.4,5.4-5.4,5.4c-3,0-5.4-2.4-5.4-5.4C9.9,9.3,12.3,6.9,15.3,6.9z M19,15
		c1.2-1.6,1.3-4.3-0.6-6c-1.9-1.7-4.8-1.5-6.5,0.4c-1.7,1.9-1.3,4.4-0.2,5.7c0.5-1.2,1.3-1.9,2.5-2.3c-1.2-0.8-1.1-2.3-0.4-3.1
		c0.8-0.8,2.1-0.9,2.9-0.1c0.4,0.4,0.6,0.9,0.6,1.4c0,0.8-0.3,1.4-0.9,1.8C17.6,13,18.5,13.8,19,15z M15.3,16.8c1,0,2-0.3,2.8-1
		c0.1-0.1,0.1-0.2,0.1-0.3c-0.4-1.3-1.7-2.2-3.1-2.1c-1.3,0.1-2.3,0.9-2.7,2.1c0,0.2,0,0.2,0.1,0.3C13.4,16.5,14.3,16.8,15.3,16.8z
		 M15.3,9.8c-0.6,0-1.2,0.5-1.1,1.2c0,0.6,0.5,1.1,1.2,1.1c0.6,0,1.1-0.5,1.1-1.2C16.5,10.3,15.9,9.8,15.3,9.8z"/>
	<path d="M22.2,25.5c0.9-1.1,1.7-2.2,2.6-3.4c0.2,0.2,0.5,0.4,0.7,0.5c-1.1,1.4-2.1,2.7-3.2,4.1c-0.7-0.7-1.5-1.3-2.2-2
		c0.2-0.2,0.4-0.4,0.6-0.7C21.2,24.6,21.7,25.1,22.2,25.5z"/>
</g>
</symbol>

<symbol id="icon-finance" viewBox="0 0 32 32">
<g>
	<path d="M2.1,16c0-4.5,0-9,0-13.5c0-0.7,0.4-1.3,1.1-1.5C3.4,1,3.5,1,3.7,1c8.2,0,16.4,0,24.6,0c0.9,0,1.6,0.6,1.6,1.6
		c0,9,0,17.9,0,26.9c0,0.8-0.4,1.4-1.1,1.5c-0.1,0-0.3,0-0.4,0c-8.2,0-16.5,0-24.7,0c-0.9,0-1.5-0.6-1.5-1.5C2.1,25,2.1,20.5,2.1,16
		z M2.9,16c0,4.5,0,8.9,0,13.4c0,0.1,0,0.1,0,0.2c0,0.4,0.3,0.7,0.7,0.7c8.3,0,16.5,0,24.8,0c0.1,0,0.1,0,0.2,0
		c0.4-0.1,0.6-0.4,0.6-0.8c0-9,0-17.9,0-26.9c0,0,0-0.1,0-0.1c0-0.4-0.3-0.7-0.6-0.7c-0.1,0-0.2,0-0.3,0c-7.6,0-15.2,0-22.8,0
		c-0.6,0-1.2,0-1.8,0C3.3,1.7,3.1,1.8,3,2.1C2.9,2.2,2.9,2.4,2.9,2.6C2.9,7.1,2.9,11.5,2.9,16z"/>
	<path d="M16,3.9c3.6,0,7.2,0,10.8,0c0.2,0,0.4,0,0.6,0.2c0.2,0.2,0.3,0.4,0.3,0.6c0,2.2,0,4.3,0,6.5c0,0.5-0.4,0.8-0.8,0.8
		c-0.1,0-0.1,0-0.2,0c-7.2,0-14.4,0-21.6,0c-0.3,0-0.5,0-0.7-0.3c-0.1-0.1-0.2-0.3-0.2-0.5c0-2.2,0-4.4,0-6.6c0-0.4,0.3-0.7,0.7-0.7
		c0.7,0,1.3,0,2,0C10,3.9,13,3.9,16,3.9z M26.9,4.7c-7.3,0-14.6,0-21.9,0c0,2.2,0,4.4,0,6.6c7.3,0,14.6,0,21.9,0
		C26.9,9.1,26.9,6.9,26.9,4.7z"/>
	<path d="M20.4,20.4c0-2.3,0-4.6,0-6.9c0-0.4,0.2-0.7,0.5-0.8c0.1,0,0.2,0,0.4,0c1.9,0,3.7,0,5.6,0c0.5,0,0.8,0.3,0.8,0.8
		c0,4.6,0,9.1,0,13.7c0,0.5-0.3,0.8-0.9,0.8c-1.9,0-3.8,0-5.6,0c-0.5,0-0.8-0.3-0.8-0.8C20.4,25,20.4,22.7,20.4,20.4z M21.1,13.5
		c0,4.6,0,9.2,0,13.9c1.9,0,3.9,0,5.8,0c0-4.6,0-9.2,0-13.9C25,13.5,23.1,13.5,21.1,13.5z"/>
	<path d="M4.3,16.4c0-1,0-1.9,0-2.9c0-0.5,0.3-0.8,0.8-0.8c1.9,0,3.8,0,5.7,0c0.5,0,0.8,0.3,0.8,0.8c0,1.9,0,3.8,0,5.7
		c0,0.5-0.3,0.8-0.8,0.8c-1.9,0-3.8,0-5.7,0c-0.5,0-0.8-0.3-0.8-0.8C4.3,18.3,4.3,17.3,4.3,16.4z M10.9,19.3c0-2,0-3.9,0-5.8
		c-1.9,0-3.9,0-5.8,0c0,1.9,0,3.9,0,5.8C7,19.3,8.9,19.3,10.9,19.3z"/>
	<path d="M4.3,24.4c0-0.9,0-1.9,0-2.8c0-0.6,0.3-0.8,0.8-0.8c1.9,0,3.8,0,5.6,0c0.5,0,0.8,0.3,0.8,0.8c0,1.9,0,3.8,0,5.6
		c0,0.6-0.3,0.8-0.8,0.8c-1.9,0-3.7,0-5.6,0c-0.6,0-0.8-0.3-0.8-0.8C4.3,26.3,4.3,25.4,4.3,24.4z M5.1,21.5c0,1.9,0,3.9,0,5.8
		c1.9,0,3.9,0,5.8,0c0-1.9,0-3.9,0-5.8C8.9,21.5,7,21.5,5.1,21.5z"/>
	<path d="M19.6,24.4c0,0.9,0,1.9,0,2.8c0,0.5-0.3,0.8-0.8,0.8c-1.9,0-3.8,0-5.7,0c-0.5,0-0.8-0.3-0.8-0.8c0-1.9,0-3.7,0-5.6
		c0-0.1,0-0.2,0-0.3c0.1-0.3,0.4-0.5,0.7-0.5c1.8,0,3.7,0,5.5,0c0.1,0,0.2,0,0.3,0c0.4,0,0.7,0.3,0.7,0.7
		C19.7,22.5,19.6,23.5,19.6,24.4C19.6,24.4,19.6,24.4,19.6,24.4z M18.9,27.3c0-1.9,0-3.9,0-5.8c-1.9,0-3.9,0-5.8,0
		c0,1.9,0,3.9,0,5.8C15,27.3,17,27.3,18.9,27.3z"/>
	<path d="M19.6,16.4c0,0.9,0,1.9,0,2.8c0,0.5-0.3,0.8-0.8,0.8c-1.9,0-3.8,0-5.7,0c-0.5,0-0.8-0.3-0.8-0.8c0-1.9,0-3.8,0-5.7
		c0-0.5,0.3-0.8,0.8-0.8c1.9,0,3.8,0,5.7,0c0.5,0,0.8,0.3,0.8,0.8C19.6,14.5,19.6,15.4,19.6,16.4z M18.9,13.5c-1.9,0-3.9,0-5.8,0
		c0,1.9,0,3.9,0,5.8c1.9,0,3.9,0,5.8,0C18.9,17.4,18.9,15.4,18.9,13.5z"/>
	<path d="M25.8,19c0,0.3,0,0.7,0,1c-1.2,0-2.4,0-3.6,0c0-0.3,0-0.6,0-1C23.4,19,24.6,19,25.8,19z"/>
	<path d="M22.3,21.1c0-0.3,0-0.6,0-1c1.2,0,2.4,0,3.6,0c0,0.3,0,0.6,0,1C24.6,21.1,23.4,21.1,22.3,21.1z"/>
	<path d="M8.4,18.2c-0.3,0-0.7,0-1,0c0-0.4,0-0.8,0-1.3c-0.4,0-0.8,0-1.2,0c0-0.3,0-0.7,0-1c0.4,0,0.8,0,1.2,0c0-0.4,0-0.8,0-1.3
		c0.3,0,0.7,0,1,0c0,0.4,0,0.8,0,1.3c0.4,0,0.8,0,1.2,0c0,0.3,0,0.7,0,1c0,0-0.1,0-0.1,0c-0.3,0-0.6,0-0.9,0c-0.1,0-0.1,0-0.1,0.1
		c0,0.3,0,0.7,0,1C8.4,18.1,8.4,18.1,8.4,18.2z"/>
	<path d="M8.6,24.4C9,24.7,9.2,25,9.5,25.3C9.3,25.5,9,25.8,8.8,26c-0.3-0.3-0.6-0.6-0.8-0.9C7.6,25.5,7.3,25.8,7,26
		c-0.2-0.2-0.5-0.5-0.7-0.7c0.3-0.3,0.6-0.6,0.9-0.9c-0.3-0.3-0.6-0.6-0.9-0.9c0.3-0.3,0.5-0.5,0.7-0.7c0.3,0.3,0.5,0.6,0.8,0.8
		c0.3-0.3,0.6-0.6,0.9-0.9c0.2,0.2,0.5,0.5,0.7,0.7C9.2,23.8,9,24.1,8.6,24.4z"/>
	<path d="M16.1,24c0.5,0,1,0,1.6,0c0,0.3,0,0.6,0,0.9c0,0-0.1,0.1-0.1,0.1c-0.4,0-0.8,0-1.2,0c0,0-0.1,0-0.2,0
		c0.4,0.3,0.5,0.5,0.4,0.9c-0.1,0.3-0.4,0.5-0.7,0.5c-0.3,0-0.6-0.2-0.6-0.5c-0.1-0.3,0-0.6,0.4-0.9c-0.1,0-0.1,0-0.2,0
		c-0.4,0-0.8,0-1.2,0c-0.1,0-0.1,0-0.1-0.1c0-0.3,0-0.6,0-0.9c0.5,0,1,0,1.6,0c-0.4-0.2-0.6-0.5-0.5-0.9c0.1-0.3,0.4-0.5,0.7-0.5
		c0.3,0,0.6,0.2,0.6,0.5C16.7,23.5,16.5,23.8,16.1,24z"/>
	<path d="M17.7,15.9c0,0.3,0,0.7,0,1c-1.2,0-2.3,0-3.5,0c0-0.3,0-0.7,0-1C15.4,15.9,16.5,15.9,17.7,15.9z"/>
</g>
</symbol>

<symbol id="icon-buy" viewBox="0 0 32 32">
<g>
	<path d="M20.9,22.1c0,1.7,0,3.4,0,5.1c0.1,0,0.1,0,0.2,0c0.7,0,1.4,0,2.1,0c0.1,0,0.2-0.1,0.3-0.1c1.4-1.4,2.7-2.9,4-4.3
		c0.1-0.1,0.1-0.2,0.1-0.3c-0.1-1.4-0.2-2.8-0.3-4.2c0-0.3-0.1-0.7-0.1-1c0-0.1-0.1-0.2-0.2-0.3c-0.3-0.2-0.6-0.4-1-0.5
		c-0.9-0.4-1.9-0.8-2.8-1.2c-0.4-0.1-0.5-0.4-0.5-0.8c0-0.3,0-0.6,0-1c0-0.1,0.1-0.3,0.1-0.4c0.3-0.3,0.4-0.6,0.4-1
		c0-0.3,0.1-0.5,0.5-0.6c0.1,0,0.1-0.1,0.1-0.2c0-0.1,0-0.3-0.1-0.4c-0.2-0.2-0.3-0.4-0.3-0.6c0-0.2,0-0.3,0.1-0.5
		c0.1-0.8-0.2-1.4-0.9-1.8c-0.9-0.5-2-0.2-2.6,0.7c-0.3,0.4-0.3,0.9-0.2,1.4c0,0.1,0,0.2,0,0.3c0,0.2,0,0.4-0.2,0.5
		c-0.2,0.1-0.1,0.3-0.1,0.4c0,0.1,0.1,0.2,0.2,0.3c0.2,0.1,0.4,0.2,0.4,0.5c0,0.4,0.2,0.8,0.5,1.1c0.1,0.1,0.1,0.3,0.1,0.4
		c0,0.4,0,0.7,0,1.1c0,0.2-0.1,0.4-0.3,0.5c-0.7,0.3-1.5,0.7-2.2,1c-0.4,0.2-0.7,0.4-1.1,0.6c-0.3,0.2-0.4,0.4-0.4,0.7
		c0.1,0.9,0.1,1.8,0.2,2.8c0.1,1.3,0.3,2.5,0.4,3.8c0.1,1.1,0.3,2.2,0.4,3.4c0.1,1,0.2,2,0.4,2.9c0,0.3-0.2,0.6-0.5,0.6
		c-0.3,0-0.5-0.2-0.6-0.5c-0.1-0.9-0.2-1.7-0.3-2.6c-0.1-1.2-0.3-2.5-0.4-3.7c-0.1-1.2-0.2-2.3-0.3-3.5c-0.1-1-0.2-2.1-0.3-3.1
		c0-0.2,0-0.4,0-0.6c0-0.2,0-0.4,0.2-0.6c0.3-0.3,0.6-0.6,1-0.7c0.8-0.4,1.5-0.7,2.3-1c0.5-0.2,0.5-0.2,0.5-0.8
		c0-0.1-0.1-0.1-0.1-0.2c-0.1-0.3-0.3-0.6-0.4-1c0-0.1-0.1-0.2-0.2-0.3c-0.6-0.5-0.7-1.3-0.3-2c0.1-0.2,0.1-0.3,0.1-0.5
		c-0.2-1.7,1.2-3,2.6-3.1c1.5-0.2,2.9,0.7,3.3,2.2c0.1,0.3,0,0.7,0,1c0,0.1,0,0.2,0.1,0.3c0.4,0.8,0.3,1.7-0.4,2.2
		c0,0-0.1,0.1-0.1,0.2c-0.2,0.3-0.3,0.7-0.4,1c-0.1,0.2-0.1,0.5-0.1,0.7c0,0,0.1,0.1,0.1,0.1c0.7,0.3,1.4,0.6,2.2,0.9
		c0.3,0.1,0.7,0.3,1,0.4c0.7,0.3,1.1,0.8,1.2,1.6c0.1,1.1,0.2,2.2,0.3,3.3c0,0.1,0,0.1,0,0.2c0.3,0,0.5,0,0.8,0
		c0.4,0,0.6,0.2,0.6,0.6c0,2,0,4,0,6.1c0,0.4-0.2,0.6-0.6,0.6c-0.6,0-1.2,0-1.8,0c-0.1,0-0.1,0-0.2,0c0,0.1,0,0.2,0,0.2
		c0,0.6,0,1.3,0,1.9c0,0.4-0.2,0.6-0.5,0.6c-0.3,0-0.5-0.2-0.5-0.6c0-0.6,0-1.3,0-1.9c0-0.1,0-0.1,0-0.2c-0.1,0-0.2,0-0.3,0
		c-1.8,0-3.6,0-5.4,0c-0.5,0-0.7-0.2-0.7-0.7c0-1.9,0-3.9,0-5.8c0-0.5,0.2-0.7,0.7-0.7c1.1,0,2.2,0,3.3,0c0.1,0,0.2,0,0.3,0
		c0.2,0.1,0.4,0.3,0.3,0.5c0,0.3-0.2,0.4-0.5,0.5c-0.9,0-1.8,0-2.7,0C21.1,22.1,21,22.1,20.9,22.1z M24.9,27.2c1.4,0,2.7,0,4.1,0
		c0-1.7,0-3.4,0-5.1c-0.1,0-0.1,0-0.2,0c0,0.2,0,0.3,0,0.5c0,0.3-0.1,0.6-0.3,0.8c-0.9,0.9-1.8,1.8-2.6,2.8
		C25.5,26.5,25.2,26.8,24.9,27.2z"/>
	<path d="M18.4,13.9c-0.3,0.1-0.6,0.2-0.8,0.3c-0.1-0.2-0.2-0.4-0.4-0.6c-0.2-0.3-0.5-0.5-0.9-0.5c-2.9,0-5.8,0-8.7,0
		c-0.8,0-1.5,0.5-1.6,1.4c-0.2,0.9-0.4,1.9-0.6,2.8c-0.1,0.3-0.4,0.4-0.7,0.2c-0.3-0.1-0.6-0.2-0.9-0.2c-0.3,0-0.6,0-0.9,0
		c0.1,0.2,0.1,0.4,0.2,0.5C3.1,18,3.2,18,3.3,18c0.5,0.1,1,0.2,1.6,0.3C5,18.3,5,18.4,5,18.5c-0.1,0.3-0.1,0.6-0.2,0.9
		c-0.3,0.6-0.2,1.2-0.2,1.9c0.1,0.6,0.1,1.2,0.1,1.8c0,0.2,0.1,0.2,0.3,0.2c3.4,0,6.7,0,10.1,0c0.1,0,0.2,0,0.3,0
		c0,0.3,0.1,0.6,0.1,0.9c-2.5,0-5,0-7.5,0c0,0.1,0,0.2,0,0.3c0,0.4,0,0.9,0,1.3c-0.1,0.7-0.8,1.3-1.5,1.3c-0.2,0-0.5,0-0.7-0.1
		c-0.7-0.2-1.2-0.8-1.2-1.6c0-0.3,0-0.7,0-1c0-0.1,0-0.2-0.1-0.2C4.1,24.2,4,24,4,23.8c-0.1-0.7-0.1-1.5-0.2-2.2
		c0-0.4-0.1-0.8-0.1-1.2c0-0.2,0-0.4,0.1-0.6C3.8,19.5,3.9,19.3,4,19c-0.3-0.1-0.7-0.1-1-0.2c-0.3,0-0.6-0.2-0.7-0.5
		C2.2,18.1,2,17.8,2,17.5c-0.1-0.6,0.4-1.1,1-1.1c0.5,0,1,0,1.5,0c0,0,0.1,0,0.1,0c0.1-0.6,0.2-1.1,0.3-1.7c0-0.2,0.1-0.4,0.1-0.7
		c0.3-1.1,1.3-1.8,2.4-1.8c2.9,0,5.9,0,8.8,0C17.3,12.2,18.1,12.9,18.4,13.9z M5.4,24.2c0,0.4,0,0.8,0,1.2c0,0.4,0.3,0.7,0.7,0.7
		C6.6,26.2,7,26,7,25.6c0-0.5,0-0.9,0-1.4C6.5,24.2,6,24.2,5.4,24.2z"/>
	<path d="M16.7,14.6c-0.3,0.2-0.5,0.3-0.8,0.5c0-0.2-0.1-0.2-0.3-0.2c-2.5,0-5,0-7.6,0c-0.1,0-0.1,0-0.2,0c-0.2,0.9-0.4,1.8-0.6,2.7
		c2.6,0,5.2,0,7.8,0c0,0.3,0,0.6,0.1,0.9c-0.1,0-0.1,0-0.2,0c-2.7,0-5.4,0-8.1,0c0,0-0.1,0-0.1,0c-0.3,0-0.5-0.2-0.4-0.5
		c0.2-0.9,0.4-1.9,0.6-2.8c0.1-0.3,0.1-0.5,0.2-0.8C7,14.1,7.2,14,7.4,14c2.9,0,5.8,0,8.7,0c0.3,0,0.4,0.1,0.5,0.4
		C16.7,14.4,16.7,14.5,16.7,14.6z"/>
	<path d="M12.8,10.4C11.8,9,10.7,7.9,10,6.5C9.4,5.3,9.2,4.2,9.7,3c0.6-1.4,2.1-2.2,3.6-1.9c1.5,0.2,2.6,1.4,2.8,2.9
		c0.1,0.9-0.1,1.7-0.5,2.5c-0.5,1-1.2,1.8-1.9,2.6C13.4,9.5,13.1,9.9,12.8,10.4z M12.8,9c0.2-0.2,0.3-0.4,0.5-0.6
		c0.5-0.8,1.1-1.5,1.6-2.3c0.4-0.6,0.6-1.4,0.5-2.1c-0.1-1-0.9-1.9-1.9-2.2c-1-0.3-2.1,0.1-2.7,1c-0.6,0.9-0.6,1.9-0.2,2.8
		C11,7,12,7.9,12.8,9z"/>
	<path d="M21.9,18.2c0,0.4,0,0.7,0,1.1c0,0.4-0.2,0.6-0.5,0.6c-0.3,0-0.5-0.2-0.5-0.6c0-0.7,0-1.4,0-2.2c0-0.2,0.1-0.4,0.3-0.5
		c0.2-0.1,0.4-0.1,0.5,0c0.2,0.1,0.2,0.3,0.2,0.5C21.9,17.5,21.9,17.8,21.9,18.2z"/>
	<path d="M12.8,5.1c-0.6,0-1.1-0.5-1.1-1.1c0-0.6,0.5-1.1,1.1-1.1c0.6,0,1.1,0.5,1.1,1.1C13.8,4.6,13.4,5.1,12.8,5.1z"/>
</g>
</symbol>




</defs>
</svg>
